<svg width="168" height="280" xmlns="http://www.w3.org/2000/svg">

 <g>
  <title>background</title>
  <rect fill="none" id="canvas_background" height="282" width="170" y="-1" x="-1"/>
 </g>
 <g>
  <title>Layer 1</title>
  <path id="svg_1" fill="#4AF6CD" d="m0,-10l168,0l0,191l-168,0l0,-191z" clip-rule="evenodd" fill-rule="evenodd"/>
  <path id="svg_2" fill="white" d="m60.220001,145.360001c0,-3.160004 0.459999,-5.940002 1.379997,-8.339996c0.920002,-2.440002 2.300003,-4.62001 4.139999,-6.540009l5.880005,4.980011c-2.280006,2.87999 -3.420006,5.899994 -3.420006,9.059998c0,1.639999 0.32,2.899994 0.960007,3.779999c0.599998,0.839996 1.459999,1.259995 2.579994,1.259995c0.800003,0 1.459999,-0.220001 1.980003,-0.660004c0.519997,-0.439987 1.019997,-1.179993 1.5,-2.220001c0.479996,-1.039993 1.080002,-2.679993 1.799995,-4.919998c1.360001,-4.279999 3.080002,-7.399994 5.160004,-9.360001c2.040001,-2 4.879997,-3 8.519997,-3c2.639999,0 4.980003,0.680008 7.020004,2.040009c2,1.360001 3.559998,3.339996 4.68,5.940002c1.119995,2.559998 1.68,5.580002 1.68,9.059998c0,6.639999 -2.020004,12.059998 -6.060005,16.259995l-6.059998,-5.459991c2.720001,-3.320007 4.080002,-6.779999 4.080002,-10.380005c0,-1.880005 -0.400002,-3.339996 -1.200005,-4.380005c-0.839996,-1.039993 -1.939995,-1.559998 -3.299995,-1.559998c-0.959999,0 -1.739998,0.199997 -2.340004,0.600006c-0.639999,0.399994 -1.199997,1.119995 -1.68,2.159988c-0.519997,1 -1.079994,2.480011 -1.68,4.440002c-1.479996,4.720001 -3.259995,8.040009 -5.339996,9.960007c-2.080002,1.919998 -4.699997,2.880005 -7.860001,2.880005c-2.479996,0 -4.659996,-0.660004 -6.540001,-1.980011c-1.879997,-1.360001 -3.32,-3.220001 -4.32,-5.580002c-1.039997,-2.399994 -1.559998,-5.079987 -1.559998,-8.039993zm28.799995,-53.404701c2.880005,0 5.460007,0.639999 7.740005,1.919998c2.279999,1.240005 4.079994,3.120003 5.400002,5.639999c1.279999,2.519707 1.919998,5.599701 1.919998,9.2397c0,5.520004 -1.340004,9.700005 -4.020004,12.540001c-2.720001,2.840004 -6.399994,4.260002 -11.040001,4.260002l-27.719997,0l0,-11.099998l27.360004,0c2.519997,0 4.379997,-0.440002 5.579994,-1.32c1.160004,-0.920006 1.740005,-2.380005 1.740005,-4.380005c0,-2 -0.600006,-3.439995 -1.800003,-4.32c-1.199997,-0.879997 -3.040001,-1.32 -5.519997,-1.32l-27.360004,0l0,-11.159698l27.719997,0zm-1.379997,-20.007599l0,3.059998l15.360001,0l0,11.099998l-41.700001,0l0,-14.459999c0,-5.879997 1.060001,-10.259998 3.180004,-13.139996c2.119995,-2.920002 5.379997,-4.380001 9.779999,-4.380001c2.639999,0 4.839996,0.619999 6.599998,1.860001c1.760002,1.199997 3.339996,3.139999 4.739998,5.82l17.400002,-10.380001l0,12.360001l-15.360001,8.16zm-7.559998,3.059998l0,-3.720001c0,-3.839996 -1.940002,-5.759995 -5.82,-5.759995c-1.800003,0 -3.120003,0.540001 -3.959999,1.619995c-0.840004,1.040001 -1.260002,2.620003 -1.260002,4.740005l0,3.119995l11.040001,0zm22.919998,-26.107098l-41.700001,0l0,-25.620001l7.860004,1.140001l0,13.379997l10.019997,0l0,-11.759998l7.860001,0l0,11.759998l15.959999,0l0,11.100002z"/>
  <path id="svg_3" fill="white" d="m60.220001,257.920013c0,-5.560013 1.759998,-10.340012 5.279999,-14.340012l5.699997,5.459991c-1.079994,1.520004 -1.860001,2.900009 -2.339996,4.139999c-0.520004,1.200012 -0.779999,2.580002 -0.779999,4.140015c0,3 1.159996,5.359985 3.479996,7.079987c2.32,1.679993 5.860001,2.52002 10.620003,2.52002c3.480003,0 6.239998,-0.279999 8.279999,-0.840027c2,-0.559998 3.440002,-1.399994 4.32,-2.519989c0.880005,-1.160004 1.32,-2.639984 1.32,-4.440002c0,-1.799988 -0.379997,-3.440002 -1.139999,-4.919998l-8.580002,0l0,4.740005l-7.619995,1.079987l0,-16.559982l20.759995,0c1.440002,2.159988 2.560005,4.599991 3.360001,7.319992c0.800003,2.720001 1.200005,5.399994 1.200005,8.040009c0,13.039978 -7.32,19.559998 -21.959999,19.559998c-4.560005,0 -8.480003,-0.880005 -11.760002,-2.640015c-3.32,-1.799988 -5.840004,-4.23999 -7.560001,-7.319977c-1.719997,-3.080017 -2.579998,-6.580017 -2.579998,-10.5zm0,-37.585007c0,-6.040009 1.919998,-10.740005 5.760002,-14.100006c3.839996,-3.360001 9.219994,-5.039993 16.139999,-5.039993c4.519997,0 8.439995,0.759995 11.759995,2.279999c3.280006,1.479996 5.800003,3.659988 7.560005,6.539993c1.759995,2.880005 2.639999,6.320007 2.639999,10.320007c0,6.039993 -1.919998,10.73999 -5.760002,14.099991c-3.839996,3.320007 -9.239998,4.979996 -16.199997,4.979996c-4.520004,0 -8.420006,-0.73999 -11.700005,-2.219986c-3.279999,-1.520004 -5.799995,-3.700012 -7.559998,-6.540009c-1.760002,-2.880005 -2.639999,-6.319992 -2.639999,-10.319992zm7.979996,0c0,2.599991 1.080002,4.519989 3.240005,5.759995c2.159996,1.199997 5.720001,1.800003 10.68,1.800003c4.959999,0 8.540001,-0.62001 10.739998,-1.860001c2.159996,-1.240005 3.239998,-3.139999 3.239998,-5.699997c0,-2.639999 -1.080002,-4.560013 -3.239998,-5.76001c-2.160004,-1.199997 -5.739998,-1.800003 -10.739998,-1.800003c-4.959999,0 -8.520004,0.600006 -10.68,1.800003c-2.160004,1.199997 -3.240005,3.12001 -3.240005,5.76001z"/>
  <rect id="svg_4" fill="white" transform="rotate(-90, 93, 191.5)" height="1" width="20" y="191" x="83"/>
 </g>
</svg>